<svg xmlns="http://www.w3.org/2000/svg" viewBox="0 0 924 334.38"><defs><style>.cls-1{fill:#ddd;}.cls-2{fill:#fc087d;}</style></defs><title>logotype</title><g id="레이어_2" data-name="레이어 2"><g id="레이어_1-2" data-name="레이어 1"><path class="cls-1" d="M79.15,145.38a79.16,79.16,0,1,0,79.16,79.16A79.16,79.16,0,0,0,79.15,145.38Zm0,127.62a48.46,48.46,0,1,1,48.47-48.46A48.52,48.52,0,0,1,79.15,273Z"/><path class="cls-1" d="M189.81,145.38a15.35,15.35,0,0,0-15.35,15.35V319a15.35,15.35,0,0,0,30.69,0V160.73A15.35,15.35,0,0,0,189.81,145.38Z"/><path class="cls-1" d="M395,145.38a15.35,15.35,0,0,0-15.34,15.35v52.5H350.54V191.4a46,46,0,0,0-46-46H251.19a15.35,15.35,0,0,0,0,30.7H304.5a15.34,15.34,0,0,1,15.35,15.34v74.31a15.35,15.35,0,0,1-15.35,15.35H251.19a15.35,15.35,0,0,0,0,30.69h53.33a46,46,0,0,0,46-46V243.92h29.08V319a15.35,15.35,0,0,0,30.69,0V160.73A15.35,15.35,0,0,0,395,145.38Z"/><path class="cls-2" d="M609.81,297.23H546V277.85h30a36.26,36.26,0,0,0,36.26-36.26v-60A36.26,36.26,0,0,0,576,145.38H483.72a36.27,36.27,0,0,0-36.26,36.26v60a36.27,36.27,0,0,0,36.26,36.26h31.59v19.38H451.5a15.35,15.35,0,0,0-15.35,15.35h0a15.34,15.34,0,0,0,15.35,15.34H609.81a15.34,15.34,0,0,0,15.34-15.34h0A15.34,15.34,0,0,0,609.81,297.23ZM478.15,235.11v-47a12,12,0,0,1,12.05-12h79.29a12,12,0,0,1,12,12v47a12,12,0,0,1-12,12H490.2A12,12,0,0,1,478.15,235.11Z"/><rect class="cls-2" x="788.31" y="142.15" width="30.69" height="111.46" rx="15.35" ry="15.35"/><path class="cls-2" d="M698.65,142.15a55.74,55.74,0,1,0,55.73,55.73A55.73,55.73,0,0,0,698.65,142.15Zm0,80.77a25,25,0,1,1,25-25A25.06,25.06,0,0,1,698.65,222.92Z"/><path class="cls-2" d="M801.31,261.69h-131a16.08,16.08,0,0,0-16.08,16.08v40.54a16.07,16.07,0,0,0,16.08,16.07h131a16.06,16.06,0,0,0,16.07-16.07V277.77A16.07,16.07,0,0,0,801.31,261.69Zm-17,42H687.35a2.42,2.42,0,0,1-2.43-2.42v-6.46a2.43,2.43,0,0,1,2.43-2.43h96.92a2.42,2.42,0,0,1,2.42,2.43v6.46A2.42,2.42,0,0,1,784.27,303.69Z"/><path class="cls-2" d="M906.62,0H666.69a17.38,17.38,0,0,0-17.38,17.38v76.7a17.38,17.38,0,0,0,17.38,17.38H844.05a5.65,5.65,0,0,1,5.64,5.65v43.32A6.48,6.48,0,0,0,860.75,165s57.58-57.78,58.06-58.54A17.36,17.36,0,0,0,924,94.08V17.38A17.38,17.38,0,0,0,906.62,0ZM719.87,64.41a7.87,7.87,0,1,1,7.86-7.87A7.87,7.87,0,0,1,719.87,64.41Zm42.14,0a7.87,7.87,0,1,1,7.86-7.87A7.87,7.87,0,0,1,762,64.41Zm39.35,0a7.87,7.87,0,1,1,7.87-7.87A7.87,7.87,0,0,1,801.36,64.41ZM879.75,59l-19.29,3.12A3.14,3.14,0,0,0,858,64.22L851.84,83.4a3.15,3.15,0,0,1-6-.13L832.29,33.49a3.14,3.14,0,0,1,4.5-3.6l43.92,23.18A3.14,3.14,0,0,1,879.75,59Z"/></g></g></svg>